<svg id="visual" viewBox="0 0 960 540" width="960" height="540" xmlns="http://www.w3.org/2000/svg" xmlns:xlink="http://www.w3.org/1999/xlink" version="1.1"><rect x="0" y="0" width="960" height="540" fill="#d9dcdd"></rect><path d="M0 361L22.8 364.7C45.7 368.3 91.3 375.7 137 377.5C182.7 379.3 228.3 375.7 274 368C319.7 360.3 365.3 348.7 411.2 354C457 359.3 503 381.7 548.8 396.8C594.7 412 640.3 420 686 413.2C731.7 406.3 777.3 384.7 823 378.7C868.7 372.7 914.3 382.3 937.2 387.2L960 392L960 541L937.2 541C914.3 541 868.7 541 823 541C777.3 541 731.7 541 686 541C640.3 541 594.7 541 548.8 541C503 541 457 541 411.2 541C365.3 541 319.7 541 274 541C228.3 541 182.7 541 137 541C91.3 541 45.7 541 22.8 541L0 541Z" fill="#96b7e9" stroke-linecap="round" stroke-linejoin="miter"></path></svg>